<svg id="Layer_1" data-name="Layer 1" xmlns="http://www.w3.org/2000/svg" viewBox="0 0 323.27 178.43">
  <defs>
    <style>
      .cls-1 {
        fill: none;
      }

      .cls-2 {
        fill: #ec1c24;
      }

      .cls-3 {
        fill: #ccc;
      }
    </style>
  </defs>
  <g>
    <path class="cls-1" d="M213.2,245.48h7.29v-12.3c-1.28,0-2,.1-3,.13Z" transform="translate(-66.73 -137.78)"/>
    <path class="cls-2" d="M313.52,245.8a17.86,17.86,0,0,0,4.65-1.39A9.89,9.89,0,0,0,323,238.5a5.82,5.82,0,0,0,.17-3,3.82,3.82,0,0,0-1.47-2.12,7.38,7.38,0,0,0-3-1.08,40.1,40.1,0,0,0-6.2-.23H299.22l-5,14h12.1A46.4,46.4,0,0,0,313.52,245.8Z" transform="translate(-66.73 -137.78)"/>
    <path class="cls-2" d="M319.06,218.05a24.58,24.58,0,0,0,3.79-.56,11.39,11.39,0,0,0,3.49-1.47,8.73,8.73,0,0,0,2.49-2.32,8.84,8.84,0,0,0,1.3-2.61,4.22,4.22,0,0,0-3.1-5.56,26.33,26.33,0,0,0-7.31-.83H308.37l-4.55,13.38h8.93C315.69,218.08,317.79,218.15,319.06,218.05Z" transform="translate(-66.73 -137.78)"/>
    <path class="cls-3" d="M201.19,196.27l1.2-4.32H180.66l-5.36,9.62-11.19,19.09q-3.47,5.79-4.58,7.71c-.74,1.29-1.46,2.57-2.16,3.86l-3.78,7.28L153,212.8l-.17-20.91c-5.41,0-12.51.06-16.86.06q-6,0-14.68-.07l-8.4,17.75-11.69,23-3.35,7q-.31-9.33-.79-15.81l-1.66-20c-.23-2.52-.41-6.49-.57-11.89-4.9.05-11.43.06-15.15.06-3.28,0-7.59,0-12.9-.06l1.46,12.52,3.54,37.22c.35,3.87.59,6.87.7,9l.49,9.14c6.12,0,13.64-.06,18.1-.06q6.35,0,15.88.06l15.45-29.07c.92-1.74,1.8-3.49,2.66-5.23l3.62-7.72q-.25,4.8-.31,7.07c0,1.52,0,3,0,4.39L129.54,253l.22,6.78c6,0,13.76-.06,18.73-.06,4.73,0,12.48,0,18.8.06L173,249.72l21.64-33.56.3-.85C198.22,205.72,200.3,199.39,201.19,196.27Z" transform="translate(-66.73 -137.78)"/>
    <path class="cls-3" d="M213.2,245.48l4.33-12.17c1,0,1.68-.11,3-.13V191.89c-7,0-13,.06-18.1.06h8l-15.66,24.24c-3.11,9.18-5.71,16.41-7.79,22-2.13,5.77-4.95,13-8.45,21.31h42.05v-14Z" transform="translate(-66.73 -137.78)"/>
    <path class="cls-3" d="M202.39,192l-1.2,4.32c-.89,3.12-3,9.45-6.21,19l-.3.89L210.34,192Z" transform="translate(-66.73 -137.78)"/>
    <path class="cls-2" d="M156.53,290.43h4.6l5.63-18H162l1.44-4.62h10.51l-7.07,22.62h4.24l-1.34,4.3H155.19Z" transform="translate(-66.73 -137.78)"/>
    <path class="cls-2" d="M177.08,279.31c5-16.07,31.91-16,26.89,0l-1.22,3.89c-5,16-31.91,16.07-26.88,0Zm4.53,3.89C178.55,293,194,293,197,283.2l1.21-3.89c3-9.61-12.37-9.73-15.41,0Z" transform="translate(-66.73 -137.78)"/>
    <path class="cls-1" d="M213.29,279.31l-1.21,3.89c-1.91,6.11,3.41,8.4,8.41,6.86V272.45A10.38,10.38,0,0,0,213.29,279.31Z" transform="translate(-66.73 -137.78)"/>
    <polygon class="cls-2" points="186.56 146.91 190.46 134.45 176.18 146.91 186.56 146.91"/>
    <path class="cls-2" d="M389.76,221.75c-2.54-84.71-92.68-84-92.68-84H220.49v54.1c6.37,0,13.36.05,20.32.05,13,0,24.5,0,34.47-.06L270,206.77q-12.09-.44-20.39-.43-9.1,0-12.32,0c-2.13,0-5.48.09-10,.22L223.13,218q7.44.18,17.42.18,3.55,0,19.06-.46Q257.12,224.18,254,233c-7.3,0-12.84-.06-16.77-.06-5.06,0-11,.08-16.74.25v12.3h0c2.16,0,6.64-.12,13.44-.24L263.5,245c1,0,2.24-.07,3.85-.13l.8-2.17q3.11-8.58,8-23.53l9.23-27,14.67-.12q6.89,0,16.11-.22c6.15-.15,13.62-.22,18-.22,5.26,0,9,.11,11.16.31a30.94,30.94,0,0,1,7.26,1.62,12.81,12.81,0,0,1,4.7,2.85,9.67,9.67,0,0,1,2.48,4.73,14.36,14.36,0,0,1-.38,6.84,21.28,21.28,0,0,1-2.49,5.43A22.41,22.41,0,0,1,353,218a24.37,24.37,0,0,1-4.73,3.36,30.77,30.77,0,0,1-4.67,2.08,52,52,0,0,1-5.77,1.49,36.5,36.5,0,0,1,5.09,1,15.12,15.12,0,0,1,3.79,1.84,10.66,10.66,0,0,1,3.2,3.28,9.9,9.9,0,0,1,1.46,4.45,14.52,14.52,0,0,1-.59,5.21,21.77,21.77,0,0,1-3.64,7.14,26.43,26.43,0,0,1-6.1,5.78,29.19,29.19,0,0,1-7.26,3.49,45.61,45.61,0,0,1-8.46,2c-2.27.25-8.53.59-14.36.71s-12,.34-18.46.34H261.4a2.09,2.09,0,0,0,.1-.21c-11.55,0-30.18-.19-41-.19v8.05c8.39-2,17,1.84,13.95,11.52l-1.21,3.89a17.49,17.49,0,0,1-12.74,11.47v21.54h86C398.81,311.75,389.76,221.75,389.76,221.75ZM262.57,284.7,261,289.62h-3.59l-1.6,5.11h-5.69l1.6-5.11H235.38l1.08-5.15,19-16.62h8.8L259,284.7Z" transform="translate(-66.73 -137.78)"/>
    <path class="cls-2" d="M227.49,283.2l1.22-3.89c1.85-5.93-3.3-8.24-8.22-6.86v17.61A10.48,10.48,0,0,0,227.49,283.2Z" transform="translate(-66.73 -137.78)"/>
    <path class="cls-2" d="M212.08,283.2l1.21-3.89a10.38,10.38,0,0,1,7.2-6.86v-4.66a17.45,17.45,0,0,0-12.93,11.52l-1.22,3.89c-3.06,9.77,5.69,13.59,14.15,11.47v-4.61C215.49,291.6,210.17,289.31,212.08,283.2Z" transform="translate(-66.73 -137.78)"/>
  </g>
</svg>
