<svg width="719" height="276" viewBox="0 0 719 276" fill="none" xmlns="http://www.w3.org/2000/svg">
<rect x="252.5" y="4.5" width="249" height="249" rx="124.5" stroke="#CCCCCC" stroke-linecap="round" stroke-dasharray="6 6"/>
<rect x="189.6" y="59.5695" width="164.343" height="63.135" rx="31.5675" transform="rotate(-13.0002 189.6 59.5695)" fill="url(#paint0_linear_65_201)"/>
<rect x="189.6" y="59.5695" width="164.343" height="63.135" rx="31.5675" transform="rotate(-13.0002 189.6 59.5695)" fill="url(#paint1_linear_65_201)"/>
<rect x="189.6" y="59.5695" width="164.343" height="63.135" rx="31.5675" transform="rotate(-13.0002 189.6 59.5695)" stroke="white"/>
<path d="M227.711 90.3524L220.384 77.116L223.657 76.3603L228.277 85.6662L228.394 85.6391L228.709 75.194L231.512 74.547L236.371 83.8193L236.496 83.7905L236.564 73.3806L239.837 72.6249L239.054 87.7338L236.133 88.4081L231.295 79.765L231.184 79.7905L230.632 89.6782L227.711 90.3524ZM247.92 85.9054C246.827 86.1578 245.835 86.1537 244.944 85.8929C244.056 85.6265 243.306 85.134 242.693 84.4154C242.079 83.6922 241.642 82.77 241.383 81.6489C241.131 80.5556 241.122 79.5469 241.355 78.6231C241.589 77.6993 242.038 76.9178 242.702 76.2786C243.371 75.6383 244.226 75.1978 245.269 74.9571C245.97 74.7952 246.649 74.7575 247.306 74.844C247.966 74.9249 248.573 75.1369 249.129 75.48C249.689 75.8221 250.174 76.3029 250.584 76.9225C250.994 77.5375 251.303 78.2971 251.511 79.2013L251.698 80.011L242.723 82.0832L242.301 80.2563L248.502 78.8247C248.404 78.4003 248.224 78.0456 247.964 77.7606C247.704 77.4757 247.389 77.2788 247.019 77.1698C246.652 77.0552 246.254 77.0475 245.825 77.1465C245.378 77.2498 245.005 77.4453 244.707 77.7327C244.412 78.0146 244.208 78.3508 244.094 78.7416C243.979 79.1277 243.968 79.5312 244.06 79.9521L244.461 81.6891C244.583 82.215 244.785 82.6471 245.067 82.9853C245.354 83.3224 245.701 83.5532 246.109 83.6778C246.516 83.8023 246.967 83.8076 247.461 83.6936C247.788 83.618 248.078 83.5026 248.328 83.3475C248.579 83.1924 248.78 83.0002 248.932 82.7709C249.083 82.5416 249.178 82.2815 249.218 81.9905L251.986 81.5409C251.999 82.228 251.847 82.8656 251.531 83.4536C251.218 84.0361 250.757 84.5411 250.146 84.9688C249.539 85.3908 248.797 85.703 247.92 85.9054ZM254.243 84.227L250.971 70.0543L253.919 69.3737L255.149 74.7023L255.239 74.6815C255.302 74.3657 255.422 74.0319 255.599 73.6802C255.778 73.3228 256.044 72.9991 256.395 72.7091C256.749 72.4134 257.224 72.1969 257.819 72.0595C258.594 71.8806 259.356 71.9185 260.105 72.1732C260.853 72.4233 261.517 72.9091 262.096 73.6306C262.675 74.3474 263.105 75.3148 263.386 76.5327C263.66 77.7184 263.699 78.7637 263.505 79.6687C263.314 80.568 262.94 81.3032 262.381 81.8743C261.827 82.4397 261.146 82.8156 260.338 83.002C259.766 83.1341 259.258 83.1519 258.813 83.0554C258.372 82.9578 257.992 82.7953 257.672 82.5679C257.352 82.3358 257.09 82.0876 256.888 81.8232L256.757 81.8536L257.15 83.5559L254.243 84.227ZM255.902 78.246C256.048 78.878 256.263 79.4091 256.547 79.8392C256.831 80.2693 257.169 80.5775 257.562 80.7638C257.954 80.9455 258.387 80.9814 258.863 80.8717C259.342 80.761 259.718 80.5357 259.989 80.1961C260.26 79.8518 260.426 79.4247 260.488 78.9147C260.554 78.399 260.515 77.8321 260.372 77.2139C260.231 76.6003 260.021 76.0802 259.742 75.6537C259.464 75.2271 259.129 74.9207 258.736 74.7344C258.343 74.5481 257.904 74.5109 257.42 74.6228C256.94 74.7335 256.563 74.9541 256.29 75.2846C256.021 75.6139 255.852 76.0318 255.785 76.5383C255.717 77.0447 255.756 77.6139 255.902 78.246ZM266.927 68.9729L266.356 66.5023L277.996 63.815L278.566 66.2855L274.227 67.2873L276.929 78.9894L273.967 79.6732L271.266 67.9711L266.927 68.9729ZM281.539 77.9252L279.085 67.2957L281.943 66.6359L282.371 68.4905L282.482 68.4649C282.523 67.7605 282.733 67.1871 283.112 66.7449C283.49 66.298 283.977 66.0059 284.572 65.8685C284.719 65.8344 284.881 65.8069 285.056 65.786C285.231 65.765 285.386 65.7558 285.523 65.7582L286.127 68.3741C285.979 68.3645 285.779 68.3718 285.527 68.396C285.275 68.4201 285.048 68.4556 284.845 68.5025C284.411 68.6026 284.045 68.7867 283.748 69.0546C283.453 69.3169 283.245 69.6371 283.124 70.015C283.007 70.3919 282.998 70.7972 283.098 71.2309L284.487 77.2446L281.539 77.9252ZM293.423 75.4002C292.329 75.6526 291.337 75.6485 290.446 75.3877C289.558 75.1213 288.808 74.6288 288.195 73.9102C287.581 73.187 287.144 72.2648 286.886 71.1437C286.633 70.0503 286.624 69.0417 286.858 68.1179C287.091 67.1941 287.54 66.4126 288.204 65.7734C288.873 65.1331 289.728 64.6926 290.771 64.4519C291.472 64.29 292.151 64.2523 292.808 64.3388C293.468 64.4197 294.076 64.6316 294.631 64.9748C295.191 65.3168 295.676 65.7977 296.087 66.4173C296.496 67.0323 296.805 67.7919 297.014 68.6961L297.201 69.5058L288.225 71.578L287.803 69.751L294.004 68.3195C293.906 67.8951 293.727 67.5404 293.467 67.2554C293.206 66.9705 292.891 66.7735 292.521 66.6646C292.154 66.55 291.757 66.5423 291.328 66.6413C290.88 66.7446 290.507 66.94 290.209 67.2275C289.915 67.5093 289.71 67.8456 289.597 68.2364C289.482 68.6225 289.47 69.026 289.563 69.4469L289.964 71.1839C290.085 71.7098 290.287 72.1419 290.569 72.4801C290.856 72.8172 291.203 73.048 291.611 73.1725C292.019 73.2971 292.469 73.3023 292.963 73.1884C293.291 73.1128 293.58 72.9974 293.831 72.8423C294.082 72.6872 294.283 72.495 294.434 72.2657C294.585 72.0364 294.68 71.7763 294.72 71.4853L297.488 71.0357C297.501 71.7228 297.349 72.3603 297.033 72.9484C296.721 73.5308 296.259 74.0359 295.648 74.4636C295.041 74.8856 294.299 75.1978 293.423 75.4002ZM301.219 66.9087L302.638 73.0539L299.69 73.7345L297.236 63.1051L300.046 62.4564L300.479 64.3318L300.603 64.303C300.696 63.6305 300.977 63.0504 301.448 62.5627C301.917 62.0704 302.547 61.7332 303.335 61.5511C304.074 61.3807 304.754 61.3936 305.378 61.5898C306.002 61.7859 306.535 62.1488 306.978 62.6782C307.42 63.2031 307.736 63.8784 307.927 64.7042L309.489 71.4722L306.541 72.1528L305.1 65.9108C304.954 65.2592 304.671 64.7901 304.25 64.5033C303.828 64.212 303.322 64.1345 302.732 64.2709C302.335 64.3625 302.004 64.5288 301.739 64.7698C301.478 65.0097 301.301 65.3131 301.205 65.6801C301.114 66.0414 301.119 66.4509 301.219 66.9087ZM315.282 70.317C314.475 70.5034 313.696 70.4646 312.945 70.2006C312.197 69.931 311.538 69.4344 310.968 68.7108C310.401 67.9815 309.981 67.0241 309.707 65.8384C309.426 64.6205 309.388 63.5625 309.594 62.6646C309.799 61.7621 310.18 61.0351 310.738 60.4835C311.299 59.9263 311.97 59.5577 312.749 59.3777C313.345 59.2403 313.864 59.2273 314.308 59.3387C314.755 59.4444 315.135 59.6189 315.449 59.8624C315.766 60.1001 316.022 60.3471 316.218 60.6033L316.308 60.5825L315.077 55.254L318.019 54.5749L321.291 68.7476L318.384 69.4186L317.991 67.7162L317.867 67.745C317.796 68.0722 317.668 68.4104 317.481 68.7597C317.298 69.1032 317.028 69.4159 316.67 69.6977C316.317 69.9785 315.854 70.1849 315.282 70.317ZM315.675 67.7553C316.15 67.6456 316.522 67.4238 316.79 67.0898C317.061 66.7501 317.23 66.3248 317.297 65.8137C317.368 65.3016 317.331 64.7295 317.185 64.0975C317.039 63.4654 316.824 62.9367 316.542 62.5112C316.259 62.0857 315.922 61.7844 315.531 61.6074C315.14 61.4303 314.707 61.3966 314.232 61.5063C313.748 61.6182 313.37 61.8439 313.098 62.1836C312.827 62.5233 312.66 62.9458 312.596 63.4511C312.533 63.9565 312.573 64.516 312.714 65.1296C312.857 65.7478 313.069 66.2748 313.349 66.7106C313.633 67.1407 313.97 67.4517 314.359 67.6437C314.752 67.8299 315.19 67.8672 315.675 67.7553ZM330.317 58.6602L327.656 59.4494C327.557 59.2294 327.41 59.0447 327.215 58.8953C327.019 58.7413 326.784 58.6377 326.509 58.5844C326.238 58.5256 325.932 58.5355 325.59 58.6143C325.134 58.7198 324.771 58.9056 324.502 59.1718C324.232 59.4334 324.133 59.7234 324.207 60.0417C324.266 60.2954 324.417 60.4865 324.66 60.615C324.904 60.7434 325.284 60.8037 325.802 60.7958L327.816 60.7392C328.898 60.7129 329.747 60.8764 330.364 61.2298C330.98 61.5832 331.376 62.1428 331.553 62.9087C331.714 63.6053 331.65 64.264 331.36 64.8847C331.076 65.5044 330.612 66.0439 329.97 66.5032C329.331 66.9568 328.551 67.2901 327.628 67.5031C326.221 67.828 325.032 67.7939 324.062 67.4007C323.095 67.0019 322.423 66.3116 322.046 65.3296L324.91 64.5079C325.097 64.9167 325.385 65.1953 325.774 65.3436C326.162 65.4873 326.618 65.4984 327.144 65.377C327.661 65.2577 328.053 65.0627 328.321 64.7919C328.593 64.5154 328.694 64.2174 328.625 63.898C328.559 63.6315 328.395 63.4385 328.134 63.3189C327.872 63.1947 327.5 63.1397 327.018 63.154L325.092 63.2122C324.006 63.2442 323.15 63.0628 322.525 62.6679C321.903 62.2719 321.501 61.6771 321.318 60.8836C321.16 60.2008 321.209 59.57 321.464 58.9911C321.724 58.4112 322.16 57.9097 322.772 57.4866C323.388 57.0624 324.151 56.7455 325.059 56.5356C326.402 56.2257 327.524 56.2655 328.425 56.6551C329.332 57.0436 329.962 57.712 330.317 58.6602Z" fill="black"/>
<rect x="393.66" y="47.007" width="141.889" height="58.0725" rx="29.0362" transform="rotate(-3.61587 393.66 47.007)" fill="url(#paint2_linear_65_201)"/>
<rect x="393.66" y="47.007" width="141.889" height="58.0725" rx="29.0362" transform="rotate(-3.61587 393.66 47.007)" fill="url(#paint3_linear_65_201)"/>
<rect x="393.66" y="47.007" width="141.889" height="58.0725" rx="29.0362" transform="rotate(-3.61587 393.66 47.007)" stroke="white"/>
<path d="M425.582 81.0978L424.665 66.5813L430.477 66.214C431.545 66.1465 432.446 66.2485 433.179 66.52C433.913 66.7915 434.477 67.1971 434.872 67.7367C435.266 68.2716 435.486 68.903 435.532 69.6307C435.568 70.1977 435.486 70.7034 435.286 71.1478C435.086 71.5874 434.797 71.9568 434.417 72.2559C434.042 72.5501 433.605 72.7698 433.107 72.9152L433.116 73.0569C433.67 73.0456 434.197 73.1689 434.697 73.4267C435.202 73.6842 435.622 74.0633 435.958 74.5639C436.293 75.0599 436.483 75.6646 436.528 76.3782C436.576 77.1484 436.429 77.8481 436.084 78.4771C435.744 79.1011 435.214 79.6114 434.494 80.008C433.774 80.4045 432.871 80.6372 431.784 80.7059L425.582 81.0978ZM428.493 78.3946L430.995 78.2365C431.85 78.1825 432.464 77.98 432.835 77.6292C433.206 77.2736 433.375 76.8218 433.34 76.2736C433.315 75.872 433.196 75.5237 432.982 75.2288C432.769 74.9338 432.478 74.7103 432.107 74.5582C431.742 74.4057 431.313 74.345 430.822 74.3761L428.249 74.5387L428.493 78.3946ZM428.118 72.4619L430.393 72.3181C430.814 72.2915 431.182 72.1947 431.499 72.0276C431.82 71.8555 432.067 71.6264 432.238 71.3404C432.415 71.0541 432.491 70.7195 432.467 70.3368C432.434 69.8122 432.22 69.4011 431.827 69.1034C431.438 68.8053 430.903 68.6778 430.223 68.7208L427.891 68.8682L428.118 72.4619ZM438.223 80.299L437.535 69.4116L440.462 69.2266L440.582 71.1262L440.696 71.1191C440.851 70.4308 441.152 69.8994 441.598 69.5249C442.044 69.1456 442.572 68.9368 443.181 68.8982C443.332 68.8887 443.496 68.8878 443.672 68.8957C443.848 68.9035 444.003 68.9198 444.138 68.9445L444.307 71.6238C444.163 71.5903 443.964 71.5649 443.712 71.5476C443.459 71.5304 443.229 71.5283 443.021 71.5414C442.577 71.5695 442.186 71.6915 441.848 71.9073C441.515 72.1181 441.258 72.4001 441.076 72.7531C440.899 73.1059 440.825 73.5044 440.853 73.9486L441.242 80.1082L438.223 80.299ZM448.697 79.8435C448.002 79.8874 447.375 79.806 446.817 79.5993C446.258 79.388 445.805 79.0536 445.458 78.5964C445.116 78.1341 444.922 77.5438 444.877 76.8256C444.838 76.2207 444.917 75.7057 445.113 75.2806C445.31 74.8554 445.591 74.5055 445.958 74.2309C446.325 73.9562 446.748 73.7398 447.226 73.5814C447.71 73.4228 448.219 73.3004 448.755 73.2144C449.384 73.1082 449.89 73.0146 450.274 72.9334C450.658 72.8475 450.933 72.7399 451.1 72.6107C451.268 72.4815 451.344 72.3012 451.33 72.0696L451.327 72.0271C451.299 71.5782 451.135 71.2398 450.836 71.012C450.541 70.7839 450.137 70.6861 449.622 70.7187C449.078 70.753 448.653 70.9008 448.347 71.1621C448.041 71.4187 447.847 71.7299 447.766 72.0956L444.959 72.0452C445.059 71.3747 445.301 70.7853 445.687 70.277C446.072 69.764 446.585 69.3568 447.225 69.0554C447.87 68.749 448.627 68.5683 449.497 68.5134C450.101 68.4752 450.685 68.5095 451.247 68.6163C451.813 68.7228 452.321 68.9113 452.77 69.1819C453.223 69.4521 453.59 69.8132 453.87 70.2652C454.15 70.7125 454.31 71.2598 454.351 71.9072L454.815 79.2505L451.951 79.4314L451.856 77.9217L451.771 77.927C451.618 78.2783 451.403 78.5932 451.126 78.8716C450.849 79.1453 450.51 79.3683 450.108 79.5408C449.706 79.7085 449.235 79.8094 448.697 79.8435ZM449.43 77.7049C449.874 77.6769 450.261 77.5646 450.59 77.3683C450.919 77.1672 451.17 76.9094 451.345 76.5947C451.52 76.28 451.595 75.9313 451.571 75.5486L451.498 74.3932C451.407 74.4606 451.281 74.5255 451.119 74.5879C450.961 74.6453 450.782 74.7017 450.581 74.7571C450.381 74.8077 450.18 74.856 449.979 74.9019C449.777 74.9431 449.594 74.9808 449.431 75.0149C449.079 75.0892 448.775 75.1915 448.518 75.3216C448.26 75.4518 448.064 75.6183 447.93 75.8213C447.796 76.0196 447.737 76.2605 447.755 76.544C447.781 76.9551 447.95 77.26 448.261 77.4585C448.577 77.6521 448.967 77.7342 449.43 77.7049ZM459.28 72.6489L459.678 78.9432L456.659 79.134L455.971 68.2466L458.848 68.0647L458.97 69.9856L459.097 69.9776C459.298 69.3291 459.671 68.8027 460.214 68.3983C460.758 67.9891 461.434 67.759 462.242 67.708C462.998 67.6602 463.667 67.7839 464.251 68.0792C464.834 68.3744 465.301 68.8193 465.652 69.4139C466.002 70.0038 466.204 70.7217 466.257 71.5675L466.695 78.4997L463.676 78.6905L463.272 72.297C463.234 71.6304 463.031 71.1214 462.663 70.7699C462.294 70.4137 461.807 70.2547 461.202 70.2929C460.796 70.3186 460.442 70.4287 460.142 70.6232C459.845 70.8175 459.621 71.0879 459.467 71.4344C459.318 71.776 459.256 72.1808 459.28 72.6489ZM472.599 78.3045C471.772 78.3568 471.01 78.1915 470.312 77.8086C469.619 77.4207 469.049 76.8233 468.605 76.0164C468.164 75.2045 467.906 74.1913 467.829 72.9769C467.75 71.7294 467.886 70.6794 468.235 69.8271C468.584 68.9701 469.079 68.3149 469.719 67.8617C470.364 67.4035 471.085 67.1491 471.884 67.0987C472.494 67.0601 473.008 67.132 473.428 67.3142C473.852 67.4914 474.199 67.7257 474.468 68.017C474.743 68.3033 474.955 68.5888 475.106 68.8734L475.198 68.8676L474.853 63.4097L477.866 63.2194L478.783 77.7359L475.806 77.924L475.696 76.1803L475.568 76.1884C475.446 76.4998 475.264 76.8125 475.023 77.1266C474.786 77.4357 474.468 77.7001 474.069 77.9199C473.675 78.1393 473.185 78.2675 472.599 78.3045ZM473.404 75.8412C473.891 75.8104 474.294 75.6521 474.613 75.3663C474.936 75.0755 475.172 74.6834 475.321 74.19C475.475 73.6964 475.531 73.1259 475.49 72.4785C475.45 71.8311 475.324 71.2745 475.115 70.8086C474.905 70.3426 474.622 69.9905 474.265 69.7521C473.908 69.5137 473.487 69.4099 473 69.4406C472.504 69.472 472.094 69.6331 471.771 69.9239C471.448 70.2148 471.214 70.6043 471.069 71.0927C470.924 71.581 470.872 72.1394 470.912 72.7679C470.952 73.4011 471.074 73.9555 471.28 74.4312C471.49 74.9018 471.771 75.2636 472.124 75.5165C472.481 75.7643 472.908 75.8726 473.404 75.8412ZM480.767 77.6105L480.079 66.7231L483.098 66.5323L483.786 77.4197L480.767 77.6105ZM481.507 65.2238C481.058 65.2522 480.663 65.1277 480.323 64.8503C479.988 64.5679 479.806 64.2164 479.78 63.7958C479.754 63.38 479.889 63.0132 480.187 62.6955C480.489 62.3728 480.865 62.1972 481.314 62.1688C481.763 62.1405 482.155 62.2675 482.491 62.5499C482.831 62.8273 483.014 63.1739 483.04 63.5898C483.067 64.0103 482.929 64.382 482.627 64.7047C482.329 65.0224 481.956 65.1955 481.507 65.2238ZM488.328 70.8133L488.726 77.1076L485.706 77.2984L485.018 66.411L487.896 66.2291L488.017 68.15L488.145 68.142C488.346 67.4935 488.718 66.9671 489.262 66.5627C489.805 66.1535 490.481 65.9234 491.289 65.8724C492.045 65.8246 492.715 65.9483 493.298 66.2436C493.881 66.5388 494.348 66.9837 494.699 67.5783C495.049 68.1682 495.251 68.8861 495.305 69.7319L495.743 76.6641L492.723 76.8549L492.319 70.4614C492.282 69.7949 492.079 69.2858 491.71 68.9343C491.342 68.5781 490.855 68.4191 490.25 68.4573C489.844 68.483 489.49 68.5931 489.189 68.7876C488.893 68.9819 488.668 69.2523 488.514 69.5988C488.365 69.9404 488.303 70.3452 488.328 70.8133ZM502.801 80.5449C501.823 80.6067 500.976 80.525 500.259 80.2999C499.548 80.0792 498.972 79.7526 498.532 79.3202C498.092 78.8878 497.793 78.3896 497.634 77.8256L500.402 77.2735C500.501 77.4855 500.649 77.6801 500.845 77.8575C501.041 78.0349 501.294 78.1707 501.604 78.265C501.918 78.3637 502.295 78.3992 502.735 78.3714C503.392 78.3299 503.923 78.1351 504.328 77.7869C504.738 77.4431 504.919 76.8979 504.872 76.1513L504.746 74.1595L504.618 74.1676C504.505 74.4784 504.325 74.7768 504.077 75.0629C503.83 75.3489 503.503 75.5902 503.098 75.7866C502.693 75.983 502.202 76.0994 501.626 76.1358C500.808 76.1875 500.052 76.0455 499.357 75.7099C498.667 75.3692 498.098 74.8192 497.652 74.0599C497.21 73.2955 496.951 72.3108 496.874 71.1058C496.796 69.8725 496.932 68.8297 497.282 67.9773C497.631 67.125 498.126 66.4722 498.766 66.019C499.411 65.5655 500.133 65.3135 500.932 65.2631C501.541 65.2245 502.058 65.2962 502.482 65.4782C502.906 65.6554 503.253 65.8897 503.523 66.181C503.797 66.4673 504.012 66.7526 504.168 67.0369L504.281 67.0298L504.166 65.201L507.164 65.0115L507.859 76.0052C507.917 76.9314 507.739 77.7207 507.325 78.3732C506.911 79.0256 506.312 79.5331 505.528 79.8957C504.75 80.2628 503.841 80.4792 502.801 80.5449ZM502.439 73.8071C502.926 73.7764 503.33 73.6299 503.65 73.3677C503.975 73.1005 504.212 72.7344 504.363 72.2694C504.519 71.7994 504.576 71.2454 504.536 70.6075C504.495 69.9695 504.371 69.4223 504.162 68.9659C503.952 68.5047 503.669 68.1549 503.312 67.9165C502.956 67.6781 502.534 67.5743 502.047 67.605C501.551 67.6364 501.142 67.7975 500.818 68.0883C500.495 68.3744 500.261 68.7593 500.116 69.2429C499.971 69.7265 499.918 70.2778 499.957 70.8968C499.997 71.5253 500.118 72.0632 500.322 72.5105C500.53 72.9528 500.81 73.2886 501.161 73.5178C501.517 73.7421 501.943 73.8385 502.439 73.8071Z" fill="black"/>
<rect x="225.214" y="91.642" width="160.706" height="62.4401" rx="31.22" transform="rotate(20.2113 225.214 91.642)" fill="#343434"/>
<rect x="225.214" y="91.642" width="160.706" height="62.4401" rx="31.22" transform="rotate(20.2113 225.214 91.642)" stroke="url(#paint4_linear_65_201)"/>
<rect x="225.214" y="91.642" width="160.706" height="62.4401" rx="31.22" transform="rotate(20.2113 225.214 91.642)" stroke="url(#paint5_radial_65_201)"/>
<path d="M247.629 125.122L250.515 126.185L247.252 135.049C246.885 136.044 246.327 136.828 245.577 137.399C244.831 137.972 243.957 138.312 242.954 138.417C241.953 138.518 240.889 138.36 239.76 137.945C238.627 137.528 237.712 136.956 237.016 136.23C236.321 135.5 235.875 134.675 235.679 133.756C235.483 132.836 235.568 131.878 235.934 130.883L239.198 122.018L242.084 123.081L238.911 131.699C238.72 132.218 238.663 132.722 238.741 133.21C238.823 133.699 239.03 134.137 239.363 134.521C239.696 134.906 240.14 135.201 240.695 135.405C241.255 135.611 241.784 135.675 242.282 135.596C242.785 135.519 243.224 135.32 243.599 134.999C243.979 134.68 244.265 134.26 244.456 133.74L247.629 125.122ZM255.306 127.949L250.281 141.598L247.395 140.536L252.42 126.886L255.306 127.949ZM265.642 131.754L268.528 132.816L265.265 141.681C264.898 142.676 264.34 143.46 263.59 144.031C262.844 144.604 261.97 144.943 260.968 145.048C259.967 145.149 258.902 144.992 257.773 144.576C256.64 144.159 255.726 143.588 255.029 142.862C254.334 142.132 253.889 141.307 253.692 140.387C253.496 139.467 253.581 138.51 253.948 137.514L257.211 128.65L260.097 129.713L256.925 138.33C256.733 138.85 256.676 139.354 256.754 139.842C256.836 140.331 257.044 140.768 257.376 141.153C257.709 141.538 258.153 141.833 258.708 142.037C259.268 142.243 259.797 142.307 260.296 142.228C260.798 142.151 261.237 141.951 261.613 141.631C261.993 141.311 262.278 140.892 262.47 140.372L265.642 131.754ZM273.14 134.514L274.179 140.18L274.286 140.219L278.765 136.585L282.024 137.785L275.346 143.076L277.092 151.469L273.773 150.247L272.689 144.558L272.582 144.518L268.068 148.147L264.762 146.93L271.547 141.678L269.867 133.309L273.14 134.514ZM285.888 154.897C285.11 154.61 284.48 154.151 283.996 153.519C283.518 152.884 283.239 152.107 283.158 151.19C283.083 150.269 283.256 149.238 283.677 148.096C284.108 146.923 284.656 146.017 285.32 145.379C285.986 144.736 286.703 144.336 287.472 144.18C288.247 144.021 289.01 144.08 289.761 144.357C290.334 144.568 290.776 144.841 291.086 145.178C291.402 145.511 291.625 145.865 291.754 146.241C291.889 146.614 291.968 146.961 291.991 147.282L292.078 147.314L293.967 142.182L296.8 143.225L291.775 156.874L288.975 155.844L289.579 154.204L289.459 154.16C289.221 154.395 288.928 154.608 288.581 154.798C288.239 154.985 287.842 155.099 287.388 155.139C286.939 155.18 286.439 155.099 285.888 154.897ZM287.62 152.968C288.077 153.137 288.51 153.155 288.917 153.022C289.33 152.887 289.704 152.623 290.04 152.232C290.38 151.843 290.662 151.344 290.886 150.735C291.11 150.126 291.221 149.566 291.217 149.056C291.213 148.545 291.097 148.108 290.867 147.746C290.637 147.384 290.293 147.118 289.835 146.95C289.369 146.778 288.929 146.76 288.516 146.896C288.103 147.031 287.731 147.293 287.402 147.681C287.072 148.069 286.798 148.559 286.581 149.15C286.362 149.745 286.25 150.302 286.246 150.82C286.248 151.336 286.359 151.78 286.58 152.154C286.806 152.525 287.153 152.797 287.62 152.968ZM298.232 159.479C297.178 159.091 296.351 158.544 295.748 157.838C295.151 157.129 294.793 156.306 294.674 155.369C294.556 154.427 294.696 153.417 295.094 152.337C295.481 151.284 296.026 150.435 296.728 149.79C297.429 149.145 298.233 148.737 299.138 148.566C300.049 148.397 301.006 148.497 302.01 148.866C302.685 149.115 303.274 149.455 303.776 149.887C304.284 150.317 304.676 150.827 304.953 151.418C305.234 152.011 305.377 152.679 305.381 153.422C305.386 154.161 305.229 154.966 304.908 155.837L304.621 156.616L295.977 153.434L296.624 151.674L302.596 153.873C302.747 153.464 302.791 153.069 302.729 152.688C302.668 152.308 302.512 151.97 302.262 151.676C302.018 151.38 301.689 151.155 301.276 151.003C300.845 150.844 300.426 150.804 300.019 150.881C299.619 150.955 299.264 151.125 298.954 151.389C298.647 151.649 298.416 151.981 298.263 152.384L297.647 154.057C297.46 154.563 297.393 155.035 297.444 155.473C297.499 155.912 297.663 156.295 297.936 156.623C298.209 156.95 298.583 157.201 299.058 157.376C299.374 157.493 299.679 157.554 299.974 157.562C300.269 157.57 300.542 157.519 300.794 157.41C301.046 157.301 301.269 157.136 301.461 156.914L304.024 158.054C303.658 158.636 303.182 159.086 302.595 159.405C302.015 159.721 301.352 159.891 300.607 159.914C299.867 159.935 299.076 159.79 298.232 159.479ZM315.6 157.336L312.941 156.539C312.979 156.3 312.957 156.065 312.876 155.833C312.796 155.597 312.656 155.382 312.455 155.187C312.261 154.989 311.999 154.83 311.67 154.708C311.23 154.547 310.825 154.503 310.454 154.579C310.085 154.65 309.844 154.838 309.731 155.145C309.641 155.389 309.663 155.632 309.796 155.873C309.929 156.114 310.215 156.373 310.653 156.65L312.368 157.705C313.288 158.276 313.909 158.878 314.231 159.511C314.553 160.144 314.578 160.83 314.307 161.567C314.06 162.238 313.645 162.754 313.063 163.115C312.486 163.478 311.803 163.675 311.014 163.708C310.231 163.737 309.395 163.589 308.506 163.261C307.151 162.762 306.175 162.083 305.579 161.222C304.988 160.359 304.804 159.414 305.026 158.385L307.873 159.267C307.805 159.711 307.893 160.102 308.138 160.439C308.383 160.772 308.76 161.031 309.266 161.218C309.764 161.401 310.199 161.453 310.571 161.373C310.95 161.29 311.198 161.096 311.315 160.791C311.406 160.532 311.374 160.281 311.222 160.038C311.071 159.791 310.789 159.541 310.378 159.288L308.735 158.282C307.809 157.714 307.192 157.094 306.885 156.421C306.582 155.749 306.571 155.031 306.853 154.267C307.095 153.609 307.481 153.108 308.012 152.764C308.547 152.421 309.186 152.24 309.929 152.221C310.677 152.204 311.489 152.356 312.365 152.678C313.658 153.155 314.574 153.802 315.115 154.622C315.661 155.443 315.822 156.348 315.6 157.336ZM314.457 165.225L318.226 154.988L321.066 156.033L317.297 166.271L314.457 165.225ZM320.138 154.193C319.716 154.038 319.406 153.765 319.207 153.373C319.014 152.979 318.99 152.585 319.135 152.189C319.279 151.798 319.552 151.518 319.953 151.347C320.359 151.174 320.774 151.165 321.196 151.321C321.618 151.476 321.926 151.751 322.119 152.145C322.318 152.536 322.345 152.927 322.201 153.318C322.056 153.713 321.78 153.998 321.373 154.171C320.972 154.341 320.56 154.349 320.138 154.193ZM322.222 172.685C321.302 172.347 320.56 171.93 319.996 171.434C319.434 170.945 319.04 170.414 318.812 169.84C318.584 169.267 318.511 168.69 318.593 168.11L321.35 168.724C321.354 168.958 321.411 169.195 321.518 169.437C321.626 169.678 321.803 169.905 322.048 170.116C322.296 170.334 322.626 170.518 323.04 170.67C323.657 170.898 324.222 170.934 324.733 170.779C325.247 170.63 325.633 170.205 325.891 169.503L326.581 167.63L326.461 167.586C326.232 167.824 325.946 168.024 325.604 168.186C325.262 168.348 324.866 168.437 324.416 168.453C323.966 168.469 323.47 168.377 322.928 168.177C322.159 167.894 321.525 167.459 321.025 166.871C320.531 166.281 320.233 165.548 320.131 164.673C320.036 163.795 320.197 162.79 320.614 161.657C321.041 160.497 321.586 159.598 322.25 158.959C322.914 158.321 323.63 157.923 324.399 157.768C325.172 157.613 325.935 157.674 326.685 157.951C327.259 158.162 327.703 158.436 328.017 158.774C328.333 159.107 328.556 159.462 328.685 159.837C328.82 160.21 328.902 160.558 328.929 160.881L329.036 160.92L329.669 159.201L332.488 160.238L328.683 170.576C328.362 171.447 327.88 172.097 327.238 172.526C326.595 172.956 325.842 173.178 324.979 173.193C324.119 173.215 323.2 173.045 322.222 172.685ZM324.613 166.376C325.071 166.544 325.499 166.573 325.898 166.463C326.303 166.35 326.668 166.111 326.994 165.746C327.326 165.379 327.603 164.896 327.823 164.296C328.044 163.696 328.151 163.145 328.144 162.643C328.139 162.136 328.021 161.702 327.792 161.34C327.562 160.978 327.218 160.712 326.76 160.544C326.294 160.372 325.854 160.354 325.441 160.49C325.029 160.621 324.659 160.878 324.331 161.262C324.003 161.646 323.732 162.129 323.518 162.711C323.3 163.302 323.194 163.843 323.2 164.334C323.212 164.823 323.332 165.243 323.561 165.595C323.796 165.944 324.147 166.204 324.613 166.376ZM335.528 166.262L333.349 172.18L330.51 171.135L334.278 160.898L336.984 161.894L336.319 163.7L336.439 163.744C336.885 163.232 337.439 162.901 338.099 162.751C338.762 162.596 339.473 162.659 340.233 162.938C340.944 163.2 341.506 163.584 341.92 164.089C342.335 164.595 342.582 165.191 342.663 165.876C342.745 166.557 342.64 167.296 342.347 168.091L339.947 174.609L337.108 173.564L339.321 167.552C339.556 166.927 339.576 166.38 339.381 165.909C339.188 165.434 338.806 165.092 338.238 164.883C337.856 164.742 337.488 164.7 337.134 164.757C336.784 164.815 336.47 164.971 336.189 165.226C335.915 165.478 335.694 165.823 335.528 166.262Z" fill="white"/>
<rect x="393.648" y="149.285" width="125" height="58" rx="29" transform="rotate(-21.4137 393.648 149.285)" fill="#494747"/>
<rect x="393.648" y="149.285" width="125" height="58" rx="29" transform="rotate(-21.4137 393.648 149.285)" stroke="url(#paint6_linear_65_201)"/>
<rect x="393.648" y="149.285" width="125" height="58" rx="29" transform="rotate(-21.4137 393.648 149.285)" stroke="url(#paint7_radial_65_201)"/>
<path d="M427.309 174.754L418.123 162.732L421.251 161.506L427.182 170.036L427.295 169.992L426.078 159.613L428.756 158.563L434.919 167.024L435.038 166.977L433.582 156.67L436.71 155.443L438.146 170.504L435.355 171.598L429.305 163.756L429.199 163.798L430.099 173.66L427.309 174.754ZM446.649 167.398C445.605 167.808 444.623 167.949 443.703 167.821C442.786 167.688 441.972 167.31 441.26 166.689C440.547 166.063 439.98 165.215 439.56 164.144C439.15 163.099 438.994 162.103 439.09 161.155C439.186 160.207 439.515 159.368 440.079 158.638C440.646 157.907 441.428 157.346 442.424 156.956C443.095 156.693 443.761 156.556 444.423 156.546C445.088 156.529 445.72 156.65 446.32 156.908C446.924 157.164 447.474 157.569 447.97 158.122C448.465 158.67 448.882 159.377 449.221 160.241L449.524 161.014L440.949 164.377L440.264 162.632L446.188 160.309C446.029 159.903 445.8 159.578 445.501 159.334C445.202 159.091 444.862 158.942 444.479 158.888C444.1 158.829 443.705 158.879 443.295 159.04C442.868 159.208 442.528 159.455 442.275 159.784C442.025 160.105 441.872 160.468 441.816 160.871C441.759 161.27 441.807 161.671 441.96 162.074L442.611 163.733C442.808 164.236 443.071 164.634 443.399 164.927C443.732 165.218 444.11 165.396 444.531 165.459C444.953 165.523 445.4 165.462 445.871 165.277C446.184 165.155 446.453 164.998 446.679 164.808C446.904 164.618 447.075 164.398 447.191 164.149C447.307 163.9 447.363 163.629 447.36 163.335L450.033 162.486C450.146 163.163 450.089 163.816 449.862 164.444C449.638 165.066 449.256 165.633 448.714 166.146C448.175 166.652 447.487 167.07 446.649 167.398ZM452.659 164.813L447.348 151.271L450.165 150.167L452.161 155.258L452.247 155.224C452.264 154.902 452.333 154.555 452.456 154.181C452.582 153.801 452.797 153.442 453.102 153.104C453.409 152.759 453.847 152.476 454.416 152.253C455.157 151.962 455.916 151.888 456.694 152.031C457.47 152.169 458.198 152.552 458.877 153.181C459.554 153.806 460.121 154.7 460.577 155.863C461.021 156.996 461.214 158.025 461.154 158.948C461.097 159.866 460.834 160.648 460.365 161.294C459.899 161.935 459.28 162.406 458.509 162.709C457.962 162.923 457.462 163.015 457.008 162.985C456.558 162.953 456.158 162.848 455.808 162.67C455.457 162.487 455.162 162.28 454.923 162.048L454.798 162.097L455.436 163.723L452.659 164.813ZM453.424 158.653C453.661 159.257 453.952 159.751 454.295 160.135C454.639 160.519 455.019 160.774 455.435 160.901C455.849 161.023 456.283 160.996 456.737 160.818C457.196 160.638 457.534 160.36 457.753 159.984C457.97 159.604 458.072 159.157 458.059 158.644C458.049 158.124 457.927 157.569 457.696 156.978C457.466 156.392 457.182 155.908 456.844 155.527C456.507 155.146 456.13 154.892 455.714 154.765C455.298 154.638 454.859 154.665 454.396 154.847C453.937 155.027 453.597 155.3 453.375 155.667C453.157 156.032 453.051 156.47 453.059 156.981C453.066 157.492 453.188 158.049 453.424 158.653ZM464.316 143.885L466.31 161.809L463.883 162.76L461.889 144.836L464.316 143.885ZM473.154 156.775L470.086 157.978L469.45 142.603L473.14 141.157L483.118 152.867L480.05 154.07L472.561 144.954L472.455 144.995L473.154 156.775ZM470.875 151.527L478.121 148.685L478.998 150.92L471.751 153.762L470.875 151.527ZM485.723 156.24L480.247 142.275L483.024 141.186L483.693 142.892L483.818 142.843C483.835 142.521 483.904 142.173 484.027 141.8C484.153 141.42 484.368 141.061 484.673 140.723C484.98 140.378 485.418 140.095 485.987 139.872C486.727 139.581 487.487 139.507 488.265 139.65C489.041 139.788 489.769 140.171 490.448 140.8C491.125 141.424 491.692 142.318 492.148 143.482C492.592 144.615 492.785 145.643 492.725 146.567C492.667 147.485 492.405 148.267 491.936 148.913C491.47 149.554 490.851 150.025 490.08 150.328C489.533 150.542 489.033 150.634 488.578 150.604C488.129 150.572 487.729 150.467 487.379 150.288C487.028 150.106 486.733 149.898 486.494 149.666L486.408 149.7L488.54 155.135L485.723 156.24ZM484.995 146.272C485.232 146.876 485.523 147.37 485.866 147.754C486.21 148.138 486.59 148.393 487.006 148.52C487.42 148.642 487.854 148.614 488.308 148.436C488.767 148.257 489.105 147.979 489.324 147.603C489.541 147.223 489.643 146.776 489.63 146.262C489.619 145.743 489.498 145.188 489.267 144.597C489.037 144.011 488.753 143.527 488.415 143.146C488.078 142.764 487.701 142.51 487.285 142.384C486.869 142.257 486.43 142.284 485.967 142.466C485.508 142.645 485.168 142.919 484.946 143.286C484.728 143.651 484.622 144.089 484.629 144.6C484.637 145.111 484.759 145.668 484.995 146.272ZM497.04 151.802L491.564 137.837L494.341 136.748L495.01 138.454L495.135 138.405C495.152 138.083 495.221 137.735 495.344 137.361C495.47 136.982 495.685 136.623 495.99 136.284C496.297 135.94 496.735 135.656 497.304 135.433C498.045 135.143 498.804 135.069 499.582 135.211C500.358 135.349 501.086 135.733 501.765 136.362C502.442 136.986 503.009 137.88 503.465 139.044C503.909 140.177 504.102 141.205 504.042 142.129C503.985 143.046 503.722 143.828 503.253 144.475C502.787 145.115 502.168 145.587 501.397 145.889C500.85 146.104 500.35 146.196 499.896 146.165C499.446 146.133 499.046 146.028 498.696 145.85C498.345 145.667 498.05 145.46 497.811 145.228L497.726 145.262L499.857 150.697L497.04 151.802ZM496.312 141.834C496.549 142.438 496.84 142.932 497.183 143.315C497.527 143.699 497.907 143.955 498.323 144.082C498.737 144.204 499.171 144.176 499.625 143.998C500.084 143.818 500.422 143.541 500.641 143.165C500.858 142.785 500.96 142.338 500.947 141.824C500.937 141.305 500.815 140.749 500.584 140.159C500.354 139.572 500.07 139.089 499.732 138.707C499.395 138.326 499.018 138.072 498.602 137.945C498.186 137.819 497.747 137.846 497.284 138.027C496.825 138.207 496.485 138.481 496.263 138.847C496.045 139.213 495.939 139.651 495.947 140.162C495.954 140.672 496.076 141.23 496.312 141.834Z" fill="white"/>
<circle cx="632" cy="129" r="64" fill="#D9E5F8" fill-opacity="0.8"/>
<path d="M612.433 113.042H614.233V123.194H612.433V113.042ZM609.391 113.33H611.155V123.14H609.391V113.33ZM606.709 121.124H610.165V122.42H606.709V121.124ZM603.613 119.954H605.413V123.122H603.613V119.954ZM600.301 120.728L600.103 119.288C600.655 119.288 601.279 119.288 601.975 119.288C602.683 119.276 603.415 119.258 604.171 119.234C604.939 119.198 605.701 119.15 606.457 119.09C607.213 119.018 607.927 118.928 608.599 118.82L608.743 120.098C607.819 120.29 606.841 120.434 605.809 120.53C604.789 120.614 603.799 120.668 602.839 120.692C601.879 120.716 601.033 120.728 600.301 120.728ZM602.875 123.752H604.747V125.084H612.361V123.752H614.233V129.278H602.875V123.752ZM604.747 126.524V127.802H612.361V126.524H604.747ZM604.477 113.6C605.545 113.6 606.403 113.822 607.051 114.266C607.711 114.698 608.041 115.292 608.041 116.048C608.041 116.792 607.711 117.386 607.051 117.83C606.403 118.274 605.545 118.496 604.477 118.496C603.397 118.496 602.527 118.274 601.867 117.83C601.207 117.386 600.877 116.792 600.877 116.048C600.877 115.292 601.207 114.698 601.867 114.266C602.527 113.822 603.397 113.6 604.477 113.6ZM604.477 114.914C603.901 114.914 603.439 115.016 603.091 115.22C602.743 115.412 602.569 115.688 602.569 116.048C602.569 116.408 602.743 116.69 603.091 116.894C603.439 117.086 603.901 117.182 604.477 117.182C605.041 117.182 605.491 117.086 605.827 116.894C606.175 116.69 606.349 116.408 606.349 116.048C606.349 115.688 606.175 115.412 605.827 115.22C605.491 115.016 605.041 114.914 604.477 114.914ZM625.589 116.894H629.009V118.424H625.589V116.894ZM628.505 113.042H630.395V122.006H628.505V113.042ZM619.703 122.726H621.575V124.526H628.523V122.726H630.395V129.278H619.703V122.726ZM621.575 126.002V127.766H628.523V126.002H621.575ZM620.783 114.32H622.331V115.526C622.331 116.534 622.145 117.488 621.773 118.388C621.413 119.288 620.891 120.08 620.207 120.764C619.523 121.436 618.695 121.946 617.723 122.294L616.751 120.782C617.399 120.566 617.969 120.278 618.461 119.918C618.965 119.558 619.391 119.144 619.739 118.676C620.087 118.196 620.345 117.692 620.513 117.164C620.693 116.624 620.783 116.078 620.783 115.526V114.32ZM621.161 114.32H622.691V115.526C622.691 116.198 622.841 116.858 623.141 117.506C623.441 118.154 623.879 118.736 624.455 119.252C625.031 119.768 625.733 120.17 626.561 120.458L625.625 121.934C624.677 121.598 623.867 121.112 623.195 120.476C622.535 119.828 622.031 119.078 621.683 118.226C621.335 117.362 621.161 116.462 621.161 115.526V114.32ZM617.309 113.924H626.111V115.418H617.309V113.924ZM635.2 113.978H645.64V115.49H635.2V113.978ZM633.328 120.458H648.232V121.988H633.328V120.458ZM644.524 113.978H646.396V115.31C646.396 116.078 646.372 116.924 646.324 117.848C646.288 118.772 646.138 119.846 645.874 121.07L644.02 120.89C644.272 119.702 644.416 118.664 644.452 117.776C644.5 116.888 644.524 116.066 644.524 115.31V113.978ZM635.254 127.622H646.864V129.152H635.254V127.622ZM635.254 123.626H637.126V127.802H635.254V123.626ZM653.883 113.924H655.449V115.526C655.449 116.606 655.269 117.614 654.909 118.55C654.549 119.474 654.021 120.284 653.325 120.98C652.641 121.664 651.801 122.192 650.805 122.564L649.815 121.034C650.703 120.734 651.447 120.308 652.047 119.756C652.647 119.192 653.103 118.544 653.415 117.812C653.727 117.08 653.883 116.318 653.883 115.526V113.924ZM654.261 113.924H655.791V115.436C655.791 116.192 655.935 116.912 656.223 117.596C656.523 118.28 656.961 118.88 657.537 119.396C658.113 119.912 658.815 120.308 659.643 120.584L658.653 122.06C657.717 121.724 656.919 121.232 656.259 120.584C655.599 119.936 655.101 119.174 654.765 118.298C654.429 117.422 654.261 116.468 654.261 115.436V113.924ZM661.623 113.042H663.513V122.726H661.623V113.042ZM658.041 123.176C659.757 123.176 661.107 123.452 662.091 124.004C663.087 124.556 663.585 125.33 663.585 126.326C663.585 127.322 663.087 128.09 662.091 128.63C661.107 129.182 659.757 129.458 658.041 129.458C656.325 129.458 654.969 129.182 653.973 128.63C652.977 128.09 652.479 127.322 652.479 126.326C652.479 125.33 652.977 124.556 653.973 124.004C654.969 123.452 656.325 123.176 658.041 123.176ZM658.041 124.652C657.261 124.652 656.595 124.718 656.043 124.85C655.503 124.97 655.089 125.156 654.801 125.408C654.513 125.66 654.369 125.966 654.369 126.326C654.369 126.674 654.513 126.974 654.801 127.226C655.089 127.478 655.503 127.67 656.043 127.802C656.595 127.934 657.261 128 658.041 128C658.821 128 659.481 127.934 660.021 127.802C660.561 127.67 660.975 127.478 661.263 127.226C661.563 126.974 661.713 126.674 661.713 126.326C661.713 125.966 661.563 125.66 661.263 125.408C660.975 125.156 660.561 124.97 660.021 124.85C659.481 124.718 658.821 124.652 658.041 124.652ZM658.311 116.3H661.965V117.848H658.311V116.3Z" fill="black"/>
<path d="M582.803 146L579.527 136.2H580.969L583.979 145.244H583.251L586.373 136.2H587.661L590.713 145.244H590.013L593.065 136.2H594.395L591.119 146H589.649L586.793 137.614H587.171L584.301 146H582.803ZM597.815 146.084C597.022 146.084 596.322 145.921 595.715 145.594C595.118 145.267 594.651 144.819 594.315 144.25C593.989 143.681 593.825 143.027 593.825 142.29C593.825 141.553 593.984 140.899 594.301 140.33C594.628 139.761 595.071 139.317 595.631 139C596.201 138.673 596.84 138.51 597.549 138.51C598.268 138.51 598.903 138.669 599.453 138.986C600.004 139.303 600.433 139.751 600.741 140.33C601.059 140.899 601.217 141.567 601.217 142.332C601.217 142.388 601.213 142.453 601.203 142.528C601.203 142.603 601.199 142.673 601.189 142.738H594.875V141.772H600.489L599.943 142.108C599.953 141.632 599.855 141.207 599.649 140.834C599.444 140.461 599.159 140.171 598.795 139.966C598.441 139.751 598.025 139.644 597.549 139.644C597.083 139.644 596.667 139.751 596.303 139.966C595.939 140.171 595.655 140.465 595.449 140.848C595.244 141.221 595.141 141.651 595.141 142.136V142.36C595.141 142.855 595.253 143.298 595.477 143.69C595.711 144.073 596.033 144.371 596.443 144.586C596.854 144.801 597.325 144.908 597.857 144.908C598.296 144.908 598.693 144.833 599.047 144.684C599.411 144.535 599.729 144.311 599.999 144.012L600.741 144.88C600.405 145.272 599.985 145.571 599.481 145.776C598.987 145.981 598.431 146.084 597.815 146.084ZM606.178 146.084C605.543 146.084 604.969 145.944 604.456 145.664C603.952 145.375 603.55 144.95 603.252 144.39C602.962 143.83 602.818 143.13 602.818 142.29C602.818 141.45 602.967 140.75 603.266 140.19C603.574 139.63 603.98 139.21 604.484 138.93C604.997 138.65 605.562 138.51 606.178 138.51C606.906 138.51 607.55 138.669 608.11 138.986C608.67 139.303 609.113 139.747 609.44 140.316C609.766 140.876 609.93 141.534 609.93 142.29C609.93 143.046 609.766 143.709 609.44 144.278C609.113 144.847 608.67 145.291 608.11 145.608C607.55 145.925 606.906 146.084 606.178 146.084ZM602.244 146V135.612H603.588V140.554L603.448 142.276L603.532 143.998V146H602.244ZM606.066 144.908C606.542 144.908 606.966 144.801 607.34 144.586C607.722 144.371 608.021 144.068 608.236 143.676C608.46 143.275 608.572 142.813 608.572 142.29C608.572 141.758 608.46 141.301 608.236 140.918C608.021 140.526 607.722 140.223 607.34 140.008C606.966 139.793 606.542 139.686 606.066 139.686C605.599 139.686 605.174 139.793 604.792 140.008C604.418 140.223 604.12 140.526 603.896 140.918C603.681 141.301 603.574 141.758 603.574 142.29C603.574 142.813 603.681 143.275 603.896 143.676C604.12 144.068 604.418 144.371 604.792 144.586C605.174 144.801 605.599 144.908 606.066 144.908ZM618.472 146V144.432L618.402 144.138V141.464C618.402 140.895 618.234 140.456 617.898 140.148C617.572 139.831 617.077 139.672 616.414 139.672C615.976 139.672 615.546 139.747 615.126 139.896C614.706 140.036 614.352 140.227 614.062 140.47L613.502 139.462C613.885 139.154 614.342 138.921 614.874 138.762C615.416 138.594 615.98 138.51 616.568 138.51C617.586 138.51 618.37 138.757 618.92 139.252C619.471 139.747 619.746 140.503 619.746 141.52V146H618.472ZM616.036 146.084C615.486 146.084 615 145.991 614.58 145.804C614.17 145.617 613.852 145.361 613.628 145.034C613.404 144.698 613.292 144.32 613.292 143.9C613.292 143.499 613.386 143.135 613.572 142.808C613.768 142.481 614.081 142.22 614.51 142.024C614.949 141.828 615.537 141.73 616.274 141.73H618.626V142.696H616.33C615.658 142.696 615.206 142.808 614.972 143.032C614.739 143.256 614.622 143.527 614.622 143.844C614.622 144.208 614.767 144.502 615.056 144.726C615.346 144.941 615.747 145.048 616.26 145.048C616.764 145.048 617.203 144.936 617.576 144.712C617.959 144.488 618.234 144.161 618.402 143.732L618.668 144.656C618.491 145.095 618.178 145.445 617.73 145.706C617.282 145.958 616.718 146.084 616.036 146.084ZM624.628 146.084C623.872 146.084 623.195 145.921 622.598 145.594C622.01 145.267 621.548 144.819 621.212 144.25C620.876 143.681 620.708 143.027 620.708 142.29C620.708 141.553 620.876 140.899 621.212 140.33C621.548 139.761 622.01 139.317 622.598 139C623.195 138.673 623.872 138.51 624.628 138.51C625.3 138.51 625.897 138.645 626.42 138.916C626.952 139.177 627.362 139.569 627.652 140.092L626.63 140.75C626.387 140.386 626.088 140.12 625.734 139.952C625.388 139.775 625.015 139.686 624.614 139.686C624.128 139.686 623.694 139.793 623.312 140.008C622.929 140.223 622.626 140.526 622.402 140.918C622.178 141.301 622.066 141.758 622.066 142.29C622.066 142.822 622.178 143.284 622.402 143.676C622.626 144.068 622.929 144.371 623.312 144.586C623.694 144.801 624.128 144.908 624.614 144.908C625.015 144.908 625.388 144.824 625.734 144.656C626.088 144.479 626.387 144.208 626.63 143.844L627.652 144.488C627.362 145.001 626.952 145.398 626.42 145.678C625.897 145.949 625.3 146.084 624.628 146.084ZM631.676 146.084C630.92 146.084 630.244 145.921 629.646 145.594C629.058 145.267 628.596 144.819 628.26 144.25C627.924 143.681 627.756 143.027 627.756 142.29C627.756 141.553 627.924 140.899 628.26 140.33C628.596 139.761 629.058 139.317 629.646 139C630.244 138.673 630.92 138.51 631.676 138.51C632.348 138.51 632.946 138.645 633.468 138.916C634 139.177 634.411 139.569 634.7 140.092L633.678 140.75C633.436 140.386 633.137 140.12 632.782 139.952C632.437 139.775 632.064 139.686 631.662 139.686C631.177 139.686 630.743 139.793 630.36 140.008C629.978 140.223 629.674 140.526 629.45 140.918C629.226 141.301 629.114 141.758 629.114 142.29C629.114 142.822 629.226 143.284 629.45 143.676C629.674 144.068 629.978 144.371 630.36 144.586C630.743 144.801 631.177 144.908 631.662 144.908C632.064 144.908 632.437 144.824 632.782 144.656C633.137 144.479 633.436 144.208 633.678 143.844L634.7 144.488C634.411 145.001 634 145.398 633.468 145.678C632.946 145.949 632.348 146.084 631.676 146.084ZM638.795 146.084C638.002 146.084 637.302 145.921 636.695 145.594C636.098 145.267 635.631 144.819 635.295 144.25C634.968 143.681 634.805 143.027 634.805 142.29C634.805 141.553 634.964 140.899 635.281 140.33C635.608 139.761 636.051 139.317 636.611 139C637.18 138.673 637.82 138.51 638.529 138.51C639.248 138.51 639.882 138.669 640.433 138.986C640.984 139.303 641.413 139.751 641.721 140.33C642.038 140.899 642.197 141.567 642.197 142.332C642.197 142.388 642.192 142.453 642.183 142.528C642.183 142.603 642.178 142.673 642.169 142.738H635.855V141.772H641.469L640.923 142.108C640.932 141.632 640.834 141.207 640.629 140.834C640.424 140.461 640.139 140.171 639.775 139.966C639.42 139.751 639.005 139.644 638.529 139.644C638.062 139.644 637.647 139.751 637.283 139.966C636.919 140.171 636.634 140.465 636.429 140.848C636.224 141.221 636.121 141.651 636.121 142.136V142.36C636.121 142.855 636.233 143.298 636.457 143.69C636.69 144.073 637.012 144.371 637.423 144.586C637.834 144.801 638.305 144.908 638.837 144.908C639.276 144.908 639.672 144.833 640.027 144.684C640.391 144.535 640.708 144.311 640.979 144.012L641.721 144.88C641.385 145.272 640.965 145.571 640.461 145.776C639.966 145.981 639.411 146.084 638.795 146.084ZM645.351 146.084C644.735 146.084 644.147 146 643.587 145.832C643.037 145.664 642.603 145.459 642.285 145.216L642.845 144.152C643.163 144.367 643.555 144.549 644.021 144.698C644.488 144.847 644.964 144.922 645.449 144.922C646.075 144.922 646.523 144.833 646.793 144.656C647.073 144.479 647.213 144.231 647.213 143.914C647.213 143.681 647.129 143.499 646.961 143.368C646.793 143.237 646.569 143.139 646.289 143.074C646.019 143.009 645.715 142.953 645.379 142.906C645.043 142.85 644.707 142.785 644.371 142.71C644.035 142.626 643.727 142.514 643.447 142.374C643.167 142.225 642.943 142.024 642.775 141.772C642.607 141.511 642.523 141.165 642.523 140.736C642.523 140.288 642.649 139.896 642.901 139.56C643.153 139.224 643.508 138.967 643.965 138.79C644.432 138.603 644.983 138.51 645.617 138.51C646.103 138.51 646.593 138.571 647.087 138.692C647.591 138.804 648.002 138.967 648.319 139.182L647.745 140.246C647.409 140.022 647.059 139.868 646.695 139.784C646.331 139.7 645.967 139.658 645.603 139.658C645.015 139.658 644.577 139.756 644.287 139.952C643.998 140.139 643.853 140.381 643.853 140.68C643.853 140.932 643.937 141.128 644.105 141.268C644.283 141.399 644.507 141.501 644.777 141.576C645.057 141.651 645.365 141.716 645.701 141.772C646.037 141.819 646.373 141.884 646.709 141.968C647.045 142.043 647.349 142.15 647.619 142.29C647.899 142.43 648.123 142.626 648.291 142.878C648.469 143.13 648.557 143.466 648.557 143.886C648.557 144.334 648.427 144.721 648.165 145.048C647.904 145.375 647.535 145.631 647.059 145.818C646.583 145.995 646.014 146.084 645.351 146.084ZM651.525 146.084C650.909 146.084 650.321 146 649.761 145.832C649.21 145.664 648.776 145.459 648.459 145.216L649.019 144.152C649.336 144.367 649.728 144.549 650.195 144.698C650.662 144.847 651.138 144.922 651.623 144.922C652.248 144.922 652.696 144.833 652.967 144.656C653.247 144.479 653.387 144.231 653.387 143.914C653.387 143.681 653.303 143.499 653.135 143.368C652.967 143.237 652.743 143.139 652.463 143.074C652.192 143.009 651.889 142.953 651.553 142.906C651.217 142.85 650.881 142.785 650.545 142.71C650.209 142.626 649.901 142.514 649.621 142.374C649.341 142.225 649.117 142.024 648.949 141.772C648.781 141.511 648.697 141.165 648.697 140.736C648.697 140.288 648.823 139.896 649.075 139.56C649.327 139.224 649.682 138.967 650.139 138.79C650.606 138.603 651.156 138.51 651.791 138.51C652.276 138.51 652.766 138.571 653.261 138.692C653.765 138.804 654.176 138.967 654.493 139.182L653.919 140.246C653.583 140.022 653.233 139.868 652.869 139.784C652.505 139.7 652.141 139.658 651.777 139.658C651.189 139.658 650.75 139.756 650.461 139.952C650.172 140.139 650.027 140.381 650.027 140.68C650.027 140.932 650.111 141.128 650.279 141.268C650.456 141.399 650.68 141.501 650.951 141.576C651.231 141.651 651.539 141.716 651.875 141.772C652.211 141.819 652.547 141.884 652.883 141.968C653.219 142.043 653.522 142.15 653.793 142.29C654.073 142.43 654.297 142.626 654.465 142.878C654.642 143.13 654.731 143.466 654.731 143.886C654.731 144.334 654.6 144.721 654.339 145.048C654.078 145.375 653.709 145.631 653.233 145.818C652.757 145.995 652.188 146.084 651.525 146.084ZM655.571 146V138.58H656.915V146H655.571ZM656.243 137.152C655.981 137.152 655.762 137.068 655.585 136.9C655.417 136.732 655.333 136.527 655.333 136.284C655.333 136.032 655.417 135.822 655.585 135.654C655.762 135.486 655.981 135.402 656.243 135.402C656.504 135.402 656.719 135.486 656.887 135.654C657.064 135.813 657.153 136.013 657.153 136.256C657.153 136.508 657.069 136.723 656.901 136.9C656.733 137.068 656.513 137.152 656.243 137.152ZM662.575 146.084C661.94 146.084 661.366 145.944 660.853 145.664C660.349 145.375 659.947 144.95 659.649 144.39C659.359 143.83 659.215 143.13 659.215 142.29C659.215 141.45 659.364 140.75 659.663 140.19C659.971 139.63 660.377 139.21 660.881 138.93C661.394 138.65 661.959 138.51 662.575 138.51C663.303 138.51 663.947 138.669 664.507 138.986C665.067 139.303 665.51 139.747 665.837 140.316C666.163 140.876 666.327 141.534 666.327 142.29C666.327 143.046 666.163 143.709 665.837 144.278C665.51 144.847 665.067 145.291 664.507 145.608C663.947 145.925 663.303 146.084 662.575 146.084ZM658.641 146V135.612H659.985V140.554L659.845 142.276L659.929 143.998V146H658.641ZM662.463 144.908C662.939 144.908 663.363 144.801 663.737 144.586C664.119 144.371 664.418 144.068 664.633 143.676C664.857 143.275 664.969 142.813 664.969 142.29C664.969 141.758 664.857 141.301 664.633 140.918C664.418 140.526 664.119 140.223 663.737 140.008C663.363 139.793 662.939 139.686 662.463 139.686C661.996 139.686 661.571 139.793 661.189 140.008C660.815 140.223 660.517 140.526 660.293 140.918C660.078 141.301 659.971 141.758 659.971 142.29C659.971 142.813 660.078 143.275 660.293 143.676C660.517 144.068 660.815 144.371 661.189 144.586C661.571 144.801 661.996 144.908 662.463 144.908ZM667.344 146V138.58H668.688V146H667.344ZM668.016 137.152C667.754 137.152 667.535 137.068 667.358 136.9C667.19 136.732 667.106 136.527 667.106 136.284C667.106 136.032 667.19 135.822 667.358 135.654C667.535 135.486 667.754 135.402 668.016 135.402C668.277 135.402 668.492 135.486 668.66 135.654C668.837 135.813 668.926 136.013 668.926 136.256C668.926 136.508 668.842 136.723 668.674 136.9C668.506 137.068 668.286 137.152 668.016 137.152ZM670.414 146V135.612H671.758V146H670.414ZM673.484 146V138.58H674.828V146H673.484ZM674.156 137.152C673.895 137.152 673.675 137.068 673.498 136.9C673.33 136.732 673.246 136.527 673.246 136.284C673.246 136.032 673.33 135.822 673.498 135.654C673.675 135.486 673.895 135.402 674.156 135.402C674.417 135.402 674.632 135.486 674.8 135.654C674.977 135.813 675.066 136.013 675.066 136.256C675.066 136.508 674.982 136.723 674.814 136.9C674.646 137.068 674.427 137.152 674.156 137.152ZM679.102 146.084C678.355 146.084 677.777 145.883 677.366 145.482C676.955 145.081 676.75 144.507 676.75 143.76V136.956H678.094V143.704C678.094 144.105 678.192 144.413 678.388 144.628C678.593 144.843 678.883 144.95 679.256 144.95C679.676 144.95 680.026 144.833 680.306 144.6L680.726 145.566C680.521 145.743 680.273 145.874 679.984 145.958C679.704 146.042 679.41 146.084 679.102 146.084ZM675.49 139.686V138.58H680.222V139.686H675.49ZM681.696 148.8C681.342 148.8 680.996 148.739 680.66 148.618C680.324 148.506 680.035 148.338 679.792 148.114L680.366 147.106C680.553 147.283 680.758 147.419 680.982 147.512C681.206 147.605 681.444 147.652 681.696 147.652C682.023 147.652 682.294 147.568 682.508 147.4C682.723 147.232 682.924 146.933 683.11 146.504L683.572 145.482L683.712 145.314L686.624 138.58H687.94L684.342 146.742C684.128 147.265 683.885 147.675 683.614 147.974C683.353 148.273 683.064 148.483 682.746 148.604C682.429 148.735 682.079 148.8 681.696 148.8ZM683.46 146.238L680.072 138.58H681.472L684.356 145.188L683.46 146.238Z" fill="#5E5E5E"/>
<path d="M607.699 178.721C602.191 200.361 576.929 226.64 544.141 195.781C536.317 188.222 538.427 176.424 551.755 175.767C557.71 175.741 565.153 184.301 557.85 194.123C552.277 200.021 535.419 206.208 520.22 199.281C514.141 196.51 500.494 189.256 492.212 176.025" stroke="#CCCCCC" stroke-dasharray="5 5"/>
<path d="M269.798 193.195C263.869 214.698 239.529 241.191 210.474 211.357C203.548 204.045 205.957 192.34 218.283 191.418C223.779 191.271 230.315 199.579 223.191 209.438C217.817 215.382 202.017 221.842 188.261 215.305C182.758 212.691 170.446 205.799 163.32 192.89" stroke="#CCCCCC" stroke-dasharray="5 5"/>
<circle cx="106" cy="165" r="69" fill="#D9E5F8" fill-opacity="0.8"/>
<path d="M94.2121 149.042H96.0121V159.194H94.2121V149.042ZM91.1701 149.33H92.9341V159.14H91.1701V149.33ZM88.4881 157.124H91.9441V158.42H88.4881V157.124ZM85.3921 155.954H87.1921V159.122H85.3921V155.954ZM82.0801 156.728L81.8821 155.288C82.4341 155.288 83.0581 155.288 83.7541 155.288C84.4621 155.276 85.1941 155.258 85.9501 155.234C86.7181 155.198 87.4801 155.15 88.2361 155.09C88.9921 155.018 89.7061 154.928 90.3781 154.82L90.5221 156.098C89.5981 156.29 88.6201 156.434 87.5881 156.53C86.5681 156.614 85.5781 156.668 84.6181 156.692C83.6581 156.716 82.8121 156.728 82.0801 156.728ZM84.6541 159.752H86.5261V161.084H94.1401V159.752H96.0121V165.278H84.6541V159.752ZM86.5261 162.524V163.802H94.1401V162.524H86.5261ZM86.2561 149.6C87.3241 149.6 88.1821 149.822 88.8301 150.266C89.4901 150.698 89.8201 151.292 89.8201 152.048C89.8201 152.792 89.4901 153.386 88.8301 153.83C88.1821 154.274 87.3241 154.496 86.2561 154.496C85.1761 154.496 84.3061 154.274 83.6461 153.83C82.9861 153.386 82.6561 152.792 82.6561 152.048C82.6561 151.292 82.9861 150.698 83.6461 150.266C84.3061 149.822 85.1761 149.6 86.2561 149.6ZM86.2561 150.914C85.6801 150.914 85.2181 151.016 84.8701 151.22C84.5221 151.412 84.3481 151.688 84.3481 152.048C84.3481 152.408 84.5221 152.69 84.8701 152.894C85.2181 153.086 85.6801 153.182 86.2561 153.182C86.8201 153.182 87.2701 153.086 87.6061 152.894C87.9541 152.69 88.1281 152.408 88.1281 152.048C88.1281 151.688 87.9541 151.412 87.6061 151.22C87.2701 151.016 86.8201 150.914 86.2561 150.914ZM102.473 157.952H104.345V162.542H102.473V157.952ZM107.585 157.97H109.457V162.542H107.585V157.97ZM98.5487 162.038H113.453V163.568H98.5487V162.038ZM99.7727 150.446H112.139V151.976H99.7727V150.446ZM99.8447 156.998H112.103V158.51H99.8447V156.998ZM102.203 151.706H104.075V157.25H102.203V151.706ZM107.837 151.706H109.709V157.25H107.837V151.706ZM121.281 150.662H122.955V151.13C122.955 151.802 122.799 152.432 122.487 153.02C122.175 153.596 121.737 154.118 121.173 154.586C120.609 155.042 119.937 155.426 119.157 155.738C118.377 156.038 117.519 156.254 116.583 156.386L115.899 154.874C116.535 154.802 117.129 154.682 117.681 154.514C118.233 154.334 118.725 154.124 119.157 153.884C119.601 153.644 119.979 153.38 120.291 153.092C120.615 152.792 120.861 152.48 121.029 152.156C121.197 151.82 121.281 151.478 121.281 151.13V150.662ZM122.127 150.662H123.801V151.13C123.801 151.466 123.885 151.802 124.053 152.138C124.221 152.474 124.461 152.792 124.773 153.092C125.085 153.38 125.463 153.644 125.907 153.884C126.351 154.124 126.849 154.334 127.401 154.514C127.953 154.682 128.547 154.802 129.183 154.874L128.481 156.386C127.557 156.254 126.705 156.038 125.925 155.738C125.157 155.426 124.485 155.042 123.909 154.586C123.345 154.118 122.907 153.596 122.595 153.02C122.283 152.432 122.127 151.802 122.127 151.13V150.662ZM116.457 149.798H128.625V151.31H116.457V149.798ZM115.089 157.376H129.993V158.888H115.089V157.376ZM121.749 158.33H123.639V161.984H121.749V158.33ZM116.907 163.622H128.337V165.152H116.907V163.622ZM116.907 160.454H118.797V164.18H116.907V160.454Z" fill="black"/>
<path d="M61.9515 182L58.6755 172.2H60.1175L63.1275 181.244H62.3995L65.5215 172.2H66.8095L69.8615 181.244H69.1615L72.2135 172.2H73.5435L70.2675 182H68.7975L65.9415 173.614H66.3195L63.4495 182H61.9515ZM76.9635 182.084C76.1702 182.084 75.4702 181.921 74.8635 181.594C74.2662 181.267 73.7995 180.819 73.4635 180.25C73.1369 179.681 72.9735 179.027 72.9735 178.29C72.9735 177.553 73.1322 176.899 73.4495 176.33C73.7762 175.761 74.2195 175.317 74.7795 175C75.3489 174.673 75.9882 174.51 76.6975 174.51C77.4162 174.51 78.0509 174.669 78.6015 174.986C79.1522 175.303 79.5815 175.751 79.8895 176.33C80.2069 176.899 80.3655 177.567 80.3655 178.332C80.3655 178.388 80.3609 178.453 80.3515 178.528C80.3515 178.603 80.3469 178.673 80.3375 178.738H74.0235V177.772H79.6375L79.0915 178.108C79.1009 177.632 79.0029 177.207 78.7975 176.834C78.5922 176.461 78.3075 176.171 77.9435 175.966C77.5889 175.751 77.1735 175.644 76.6975 175.644C76.2309 175.644 75.8155 175.751 75.4515 175.966C75.0875 176.171 74.8029 176.465 74.5975 176.848C74.3922 177.221 74.2895 177.651 74.2895 178.136V178.36C74.2895 178.855 74.4015 179.298 74.6255 179.69C74.8589 180.073 75.1809 180.371 75.5915 180.586C76.0022 180.801 76.4735 180.908 77.0055 180.908C77.4442 180.908 77.8409 180.833 78.1955 180.684C78.5595 180.535 78.8769 180.311 79.1475 180.012L79.8895 180.88C79.5535 181.272 79.1335 181.571 78.6295 181.776C78.1349 181.981 77.5795 182.084 76.9635 182.084ZM85.3258 182.084C84.6911 182.084 84.1171 181.944 83.6038 181.664C83.0998 181.375 82.6985 180.95 82.3998 180.39C82.1105 179.83 81.9658 179.13 81.9658 178.29C81.9658 177.45 82.1151 176.75 82.4138 176.19C82.7218 175.63 83.1278 175.21 83.6318 174.93C84.1451 174.65 84.7098 174.51 85.3258 174.51C86.0538 174.51 86.6978 174.669 87.2578 174.986C87.8178 175.303 88.2611 175.747 88.5878 176.316C88.9145 176.876 89.0778 177.534 89.0778 178.29C89.0778 179.046 88.9145 179.709 88.5878 180.278C88.2611 180.847 87.8178 181.291 87.2578 181.608C86.6978 181.925 86.0538 182.084 85.3258 182.084ZM81.3918 182V171.612H82.7358V176.554L82.5958 178.276L82.6798 179.998V182H81.3918ZM85.2138 180.908C85.6898 180.908 86.1145 180.801 86.4878 180.586C86.8705 180.371 87.1691 180.068 87.3838 179.676C87.6078 179.275 87.7198 178.813 87.7198 178.29C87.7198 177.758 87.6078 177.301 87.3838 176.918C87.1691 176.526 86.8705 176.223 86.4878 176.008C86.1145 175.793 85.6898 175.686 85.2138 175.686C84.7471 175.686 84.3225 175.793 83.9398 176.008C83.5665 176.223 83.2678 176.526 83.0438 176.918C82.8291 177.301 82.7218 177.758 82.7218 178.29C82.7218 178.813 82.8291 179.275 83.0438 179.676C83.2678 180.068 83.5665 180.371 83.9398 180.586C84.3225 180.801 84.7471 180.908 85.2138 180.908ZM95.1425 182.084C94.5265 182.084 93.9385 182 93.3785 181.832C92.8279 181.664 92.3939 181.459 92.0765 181.216L92.6365 180.152C92.9539 180.367 93.3459 180.549 93.8125 180.698C94.2792 180.847 94.7552 180.922 95.2405 180.922C95.8659 180.922 96.3139 180.833 96.5845 180.656C96.8645 180.479 97.0045 180.231 97.0045 179.914C97.0045 179.681 96.9205 179.499 96.7525 179.368C96.5845 179.237 96.3605 179.139 96.0805 179.074C95.8099 179.009 95.5065 178.953 95.1705 178.906C94.8345 178.85 94.4985 178.785 94.1625 178.71C93.8265 178.626 93.5185 178.514 93.2385 178.374C92.9585 178.225 92.7345 178.024 92.5665 177.772C92.3985 177.511 92.3145 177.165 92.3145 176.736C92.3145 176.288 92.4405 175.896 92.6925 175.56C92.9445 175.224 93.2992 174.967 93.7565 174.79C94.2232 174.603 94.7739 174.51 95.4085 174.51C95.8939 174.51 96.3839 174.571 96.8785 174.692C97.3825 174.804 97.7932 174.967 98.1105 175.182L97.5365 176.246C97.2005 176.022 96.8505 175.868 96.4865 175.784C96.1225 175.7 95.7585 175.658 95.3945 175.658C94.8065 175.658 94.3679 175.756 94.0785 175.952C93.7892 176.139 93.6445 176.381 93.6445 176.68C93.6445 176.932 93.7285 177.128 93.8965 177.268C94.0739 177.399 94.2979 177.501 94.5685 177.576C94.8485 177.651 95.1565 177.716 95.4925 177.772C95.8285 177.819 96.1645 177.884 96.5005 177.968C96.8365 178.043 97.1399 178.15 97.4105 178.29C97.6905 178.43 97.9145 178.626 98.0825 178.878C98.2599 179.13 98.3485 179.466 98.3485 179.886C98.3485 180.334 98.2179 180.721 97.9565 181.048C97.6952 181.375 97.3265 181.631 96.8505 181.818C96.3745 181.995 95.8052 182.084 95.1425 182.084ZM101.736 182.084C100.99 182.084 100.411 181.883 100 181.482C99.5896 181.081 99.3842 180.507 99.3842 179.76V172.956H100.728V179.704C100.728 180.105 100.826 180.413 101.022 180.628C101.228 180.843 101.517 180.95 101.89 180.95C102.31 180.95 102.66 180.833 102.94 180.6L103.36 181.566C103.155 181.743 102.908 181.874 102.618 181.958C102.338 182.042 102.044 182.084 101.736 182.084ZM98.1242 175.686V174.58H102.856V175.686H98.1242ZM108.751 182V180.432L108.681 180.138V177.464C108.681 176.895 108.513 176.456 108.177 176.148C107.85 175.831 107.356 175.672 106.693 175.672C106.254 175.672 105.825 175.747 105.405 175.896C104.985 176.036 104.63 176.227 104.341 176.47L103.781 175.462C104.164 175.154 104.621 174.921 105.153 174.762C105.694 174.594 106.259 174.51 106.847 174.51C107.864 174.51 108.648 174.757 109.199 175.252C109.75 175.747 110.025 176.503 110.025 177.52V182H108.751ZM106.315 182.084C105.764 182.084 105.279 181.991 104.859 181.804C104.448 181.617 104.131 181.361 103.907 181.034C103.683 180.698 103.571 180.32 103.571 179.9C103.571 179.499 103.664 179.135 103.851 178.808C104.047 178.481 104.36 178.22 104.789 178.024C105.228 177.828 105.816 177.73 106.553 177.73H108.905V178.696H106.609C105.937 178.696 105.484 178.808 105.251 179.032C105.018 179.256 104.901 179.527 104.901 179.844C104.901 180.208 105.046 180.502 105.335 180.726C105.624 180.941 106.026 181.048 106.539 181.048C107.043 181.048 107.482 180.936 107.855 180.712C108.238 180.488 108.513 180.161 108.681 179.732L108.947 180.656C108.77 181.095 108.457 181.445 108.009 181.706C107.561 181.958 106.996 182.084 106.315 182.084ZM115.634 174.51C116.241 174.51 116.773 174.627 117.23 174.86C117.697 175.093 118.061 175.448 118.322 175.924C118.584 176.4 118.714 177.002 118.714 177.73V182H117.37V177.884C117.37 177.165 117.193 176.624 116.838 176.26C116.493 175.896 116.003 175.714 115.368 175.714C114.892 175.714 114.477 175.807 114.122 175.994C113.768 176.181 113.492 176.456 113.296 176.82C113.11 177.184 113.016 177.637 113.016 178.178V182H111.672V174.58H112.96V176.582L112.75 176.05C112.993 175.565 113.366 175.187 113.87 174.916C114.374 174.645 114.962 174.51 115.634 174.51ZM123.428 182.084C122.709 182.084 122.065 181.925 121.496 181.608C120.936 181.291 120.492 180.847 120.166 180.278C119.839 179.709 119.676 179.046 119.676 178.29C119.676 177.534 119.839 176.876 120.166 176.316C120.492 175.747 120.936 175.303 121.496 174.986C122.065 174.669 122.709 174.51 123.428 174.51C124.053 174.51 124.618 174.65 125.122 174.93C125.626 175.21 126.027 175.63 126.326 176.19C126.634 176.75 126.788 177.45 126.788 178.29C126.788 179.13 126.638 179.83 126.34 180.39C126.05 180.95 125.654 181.375 125.15 181.664C124.646 181.944 124.072 182.084 123.428 182.084ZM123.54 180.908C124.006 180.908 124.426 180.801 124.8 180.586C125.182 180.371 125.481 180.068 125.696 179.676C125.92 179.275 126.032 178.813 126.032 178.29C126.032 177.758 125.92 177.301 125.696 176.918C125.481 176.526 125.182 176.223 124.8 176.008C124.426 175.793 124.006 175.686 123.54 175.686C123.064 175.686 122.639 175.793 122.266 176.008C121.892 176.223 121.594 176.526 121.37 176.918C121.146 177.301 121.034 177.758 121.034 178.29C121.034 178.813 121.146 179.275 121.37 179.676C121.594 180.068 121.892 180.371 122.266 180.586C122.639 180.801 123.064 180.908 123.54 180.908ZM126.074 182V179.998L126.158 178.276L126.018 176.554V171.612H127.362V182H126.074ZM133.671 182V180.432L133.601 180.138V177.464C133.601 176.895 133.433 176.456 133.097 176.148C132.77 175.831 132.275 175.672 131.613 175.672C131.174 175.672 130.745 175.747 130.325 175.896C129.905 176.036 129.55 176.227 129.261 176.47L128.701 175.462C129.083 175.154 129.541 174.921 130.073 174.762C130.614 174.594 131.179 174.51 131.767 174.51C132.784 174.51 133.568 174.757 134.119 175.252C134.669 175.747 134.945 176.503 134.945 177.52V182H133.671ZM131.235 182.084C130.684 182.084 130.199 181.991 129.779 181.804C129.368 181.617 129.051 181.361 128.827 181.034C128.603 180.698 128.491 180.32 128.491 179.9C128.491 179.499 128.584 179.135 128.771 178.808C128.967 178.481 129.279 178.22 129.709 178.024C130.147 177.828 130.735 177.73 131.473 177.73H133.825V178.696H131.529C130.857 178.696 130.404 178.808 130.171 179.032C129.937 179.256 129.821 179.527 129.821 179.844C129.821 180.208 129.965 180.502 130.255 180.726C130.544 180.941 130.945 181.048 131.459 181.048C131.963 181.048 132.401 180.936 132.775 180.712C133.157 180.488 133.433 180.161 133.601 179.732L133.867 180.656C133.689 181.095 133.377 181.445 132.929 181.706C132.481 181.958 131.916 182.084 131.235 182.084ZM136.592 182V174.58H137.88V176.596L137.754 176.092C137.959 175.579 138.304 175.187 138.79 174.916C139.275 174.645 139.872 174.51 140.582 174.51V175.812C140.526 175.803 140.47 175.798 140.414 175.798C140.367 175.798 140.32 175.798 140.274 175.798C139.555 175.798 138.986 176.013 138.566 176.442C138.146 176.871 137.936 177.492 137.936 178.304V182H136.592ZM144.396 182.084C143.677 182.084 143.033 181.925 142.464 181.608C141.904 181.291 141.461 180.847 141.134 180.278C140.807 179.709 140.644 179.046 140.644 178.29C140.644 177.534 140.807 176.876 141.134 176.316C141.461 175.747 141.904 175.303 142.464 174.986C143.033 174.669 143.677 174.51 144.396 174.51C145.021 174.51 145.586 174.65 146.09 174.93C146.594 175.21 146.995 175.63 147.294 176.19C147.602 176.75 147.756 177.45 147.756 178.29C147.756 179.13 147.607 179.83 147.308 180.39C147.019 180.95 146.622 181.375 146.118 181.664C145.614 181.944 145.04 182.084 144.396 182.084ZM144.508 180.908C144.975 180.908 145.395 180.801 145.768 180.586C146.151 180.371 146.449 180.068 146.664 179.676C146.888 179.275 147 178.813 147 178.29C147 177.758 146.888 177.301 146.664 176.918C146.449 176.526 146.151 176.223 145.768 176.008C145.395 175.793 144.975 175.686 144.508 175.686C144.032 175.686 143.607 175.793 143.234 176.008C142.861 176.223 142.562 176.526 142.338 176.918C142.114 177.301 142.002 177.758 142.002 178.29C142.002 178.813 142.114 179.275 142.338 179.676C142.562 180.068 142.861 180.371 143.234 180.586C143.607 180.801 144.032 180.908 144.508 180.908ZM147.042 182V179.998L147.126 178.276L146.986 176.554V171.612H148.33V182H147.042ZM152.161 182.084C151.545 182.084 150.957 182 150.397 181.832C149.846 181.664 149.412 181.459 149.095 181.216L149.655 180.152C149.972 180.367 150.364 180.549 150.831 180.698C151.297 180.847 151.773 180.922 152.259 180.922C152.884 180.922 153.332 180.833 153.603 180.656C153.883 180.479 154.023 180.231 154.023 179.914C154.023 179.681 153.939 179.499 153.771 179.368C153.603 179.237 153.379 179.139 153.099 179.074C152.828 179.009 152.525 178.953 152.189 178.906C151.853 178.85 151.517 178.785 151.181 178.71C150.845 178.626 150.537 178.514 150.257 178.374C149.977 178.225 149.753 178.024 149.585 177.772C149.417 177.511 149.333 177.165 149.333 176.736C149.333 176.288 149.459 175.896 149.711 175.56C149.963 175.224 150.317 174.967 150.775 174.79C151.241 174.603 151.792 174.51 152.427 174.51C152.912 174.51 153.402 174.571 153.897 174.692C154.401 174.804 154.811 174.967 155.129 175.182L154.555 176.246C154.219 176.022 153.869 175.868 153.505 175.784C153.141 175.7 152.777 175.658 152.413 175.658C151.825 175.658 151.386 175.756 151.097 175.952C150.807 176.139 150.663 176.381 150.663 176.68C150.663 176.932 150.747 177.128 150.915 177.268C151.092 177.399 151.316 177.501 151.587 177.576C151.867 177.651 152.175 177.716 152.511 177.772C152.847 177.819 153.183 177.884 153.519 177.968C153.855 178.043 154.158 178.15 154.429 178.29C154.709 178.43 154.933 178.626 155.101 178.878C155.278 179.13 155.367 179.466 155.367 179.886C155.367 180.334 155.236 180.721 154.975 181.048C154.713 181.375 154.345 181.631 153.869 181.818C153.393 181.995 152.823 182.084 152.161 182.084Z" fill="#5E5E5E"/>
<defs>
<linearGradient id="paint0_linear_65_201" x1="193.621" y1="68.5804" x2="350.677" y2="87.8277" gradientUnits="userSpaceOnUse">
<stop stop-color="white"/>
<stop offset="1" stop-color="white"/>
</linearGradient>
<linearGradient id="paint1_linear_65_201" x1="199.783" y1="65.4519" x2="350.592" y2="91.3413" gradientUnits="userSpaceOnUse">
<stop stop-color="#E4DDD3"/>
<stop offset="1" stop-color="#E4DDD3" stop-opacity="0.4"/>
</linearGradient>
<linearGradient id="paint2_linear_65_201" x1="397.123" y1="55.1843" x2="533.09" y2="70.8184" gradientUnits="userSpaceOnUse">
<stop stop-color="white"/>
<stop offset="1" stop-color="white"/>
</linearGradient>
<linearGradient id="paint3_linear_65_201" x1="402.448" y1="52.3027" x2="533.224" y2="73.3669" gradientUnits="userSpaceOnUse">
<stop stop-color="#E4DDD3"/>
<stop offset="1" stop-color="#E4DDD3" stop-opacity="0.4"/>
</linearGradient>
<linearGradient id="paint4_linear_65_201" x1="230.82" y1="100.629" x2="380.181" y2="120.819" gradientUnits="userSpaceOnUse">
<stop stop-color="white" stop-opacity="0.8"/>
<stop offset="1" stop-color="white" stop-opacity="0.4"/>
</linearGradient>
<radialGradient id="paint5_radial_65_201" cx="0" cy="0" r="1" gradientUnits="userSpaceOnUse" gradientTransform="translate(234.04 91) rotate(24.2855) scale(154.249 54.3614)">
<stop stop-color="#E4DDD3"/>
<stop offset="1" stop-color="#E4DDD3" stop-opacity="0.4"/>
</radialGradient>
<linearGradient id="paint6_linear_65_201" x1="397.6" y1="157.958" x2="514.606" y2="171.209" gradientUnits="userSpaceOnUse">
<stop stop-color="white" stop-opacity="0.8"/>
<stop offset="1" stop-color="white" stop-opacity="0.4"/>
</linearGradient>
<radialGradient id="paint7_radial_65_201" cx="0" cy="0" r="1" gradientUnits="userSpaceOnUse" gradientTransform="translate(400.108 149.002) rotate(28.3048) scale(124.43 48.8335)">
<stop stop-color="#E4DDD3"/>
<stop offset="1" stop-color="#E4DDD3" stop-opacity="0.4"/>
</radialGradient>
</defs>
</svg>
